<?xml version="1.0" encoding="iso-8859-1"?>
<!-- Generator: Adobe Illustrator 19.0.0, SVG Export Plug-In . SVG Version: 6.00 Build 0)  -->
<svg version="1.1" id="Capa_1" xmlns="http://www.w3.org/2000/svg" xmlns:xlink="http://www.w3.org/1999/xlink" x="0px" y="0px"
	 viewBox="0 0 511.999 511.999" style="enable-background:new 0 0 511.999 511.999;" xml:space="preserve">
<rect x="48.98" y="20.398" style="fill:#4FC3F7;" width="142.165" height="142.015"/>
<rect x="91.693" y="63.032" style="fill:#D9D9D9;" width="56.726" height="99.373"/>
<rect x="48.98" y="20.398" style="opacity:0.1;enable-background:new    ;" width="60.002" height="142.015"/>
<polygon style="fill:#FFB74D;" points="355.802,57.691 264.241,74.365 264.241,272.075 447.364,272.075 447.364,74.365 "/>
<polygon style="opacity:0.1;enable-background:new    ;" points="375.802,61.333 355.802,57.691 264.241,74.365 264.241,272.075 
	304.242,272.075 304.242,74.365 "/>
<polygon style="fill:#26A69A;" points="191.142,162.412 33.494,178.429 33.494,491.6 316.708,491.6 342.201,471.081 
	355.784,447.081 355.784,178.429 "/>
<rect x="69.762" y="224.397" style="fill:#00897B;" width="65.764" height="66.412"/>
<polygon style="opacity:0.1;enable-background:new    ;" points="216.686,164.897 191.142,162.412 33.494,178.429 33.494,491.6 
	83.496,491.6 83.496,178.429 "/>
<g>
	<rect x="100.793" y="354.921" style="fill:#00897B;" width="82.113" height="136.675"/>
	<polygon style="fill:#00897B;" points="381.786,146.395 355.784,178.429 33.494,178.429 7.491,146.395 	"/>
</g>
<polygon style="opacity:0.1;enable-background:new    ;" points="7.491,146.395 33.494,178.429 83.496,178.429 57.493,146.395 "/>
<rect x="191.146" y="224.397" style="fill:#00897B;" width="65.764" height="66.412"/>
<rect x="250.108" y="41.011" style="fill:#FF9800;" width="211.397" height="33.351"/>
<rect x="250.108" y="41.011" style="opacity:0.1;enable-background:new    ;" width="40.001" height="33.351"/>
<polygon style="fill:#E6643C;" points="474.924,242.059 324.427,242.059 294.842,306.374 316.708,306.374 399.675,335.015 
	482.641,306.374 504.508,306.374 "/>
<polygon style="opacity:0.1;enable-background:new    ;" points="356.71,306.374 334.843,306.374 364.428,242.059 324.427,242.059 
	294.842,306.374 316.708,306.374 399.675,335.015 419.676,328.111 "/>
<polygon style="fill:#FF6F43;" points="316.708,306.374 316.708,491.6 364.945,491.6 399.675,466.322 434.405,491.6 482.641,491.6 
	482.641,306.374 "/>
<g style="opacity:0.1;">
	<rect x="316.71" y="306.37" width="30.001" height="185.226"/>
</g>
<rect x="364.942" y="379.862" style="fill:#E6643C;" width="69.462" height="111.734"/>
<path d="M135.532,298.31c4.142,0,7.5-3.358,7.5-7.5V224.4c0-4.142-3.358-7.5-7.5-7.5H69.768c-4.142,0-7.5,3.358-7.5,7.5v66.409
	c0,4.142,3.358,7.5,7.5,7.5H135.532z M77.269,231.901h50.764v51.408H77.269V231.901z"/>
<path d="M191.151,298.31h65.765c4.142,0,7.5-3.358,7.5-7.5V224.4c0-4.142-3.358-7.5-7.5-7.5h-65.765c-4.142,0-7.5,3.358-7.5,7.5
	v66.409C183.651,294.951,187.009,298.31,191.151,298.31z M198.652,231.901h50.765v51.408h-50.765V231.901z"/>
<path d="M481.746,238.925c-1.224-2.661-3.885-4.366-6.813-4.366h-20.059v-33.39c0-4.142-3.358-7.5-7.5-7.5
	c-4.142,0-7.5,3.358-7.5,7.5v33.39h-76.582V181.09l24.326-29.969c1.823-2.246,2.192-5.34,0.948-7.952
	c-1.244-2.611-3.879-4.275-6.771-4.275H271.749V81.866h168.124v89.302c0,4.142,3.358,7.5,7.5,7.5c4.142,0,7.5-3.358,7.5-7.5V81.866
	h6.635c4.142,0,7.5-3.358,7.5-7.5V41.015c0-4.142-3.358-7.5-7.5-7.5H250.113c-4.142,0-7.5,3.358-7.5,7.5v33.351
	c0,4.142,3.358,7.5,7.5,7.5h6.635v57.028h-58.098V20.398c0-4.142-3.358-7.5-7.5-7.5H48.989c-4.142,0-7.5,3.358-7.5,7.5v118.496H7.5
	c-2.893,0-5.527,1.664-6.771,4.275c-1.244,2.612-0.875,5.706,0.948,7.952l24.326,29.969v310.51c0,4.142,3.358,7.5,7.5,7.5H482.65
	c4.142,0,7.5-3.358,7.5-7.5V313.874c0,0,14.353,0,14.366,0c5.363,0,9.06-5.751,6.813-10.634L481.746,238.925z M257.614,48.515
	h196.395v18.351H257.614V48.515z M56.489,27.899h127.162v110.996h-27.718V63.034c0-4.142-3.358-7.5-7.5-7.5H91.707
	c-4.142,0-7.5,3.358-7.5,7.5v75.86H56.489V27.899z M140.933,138.894H99.207v-68.36h41.725L140.933,138.894L140.933,138.894z
	 M366.046,153.895l-13.826,17.035H37.075l-13.826-17.035H366.046z M41.003,185.929h307.288v48.63h-23.857
	c-0.366,0-0.728,0.026-1.083,0.079c-2.488,0.362-4.659,1.959-5.731,4.287c0,0-29.537,64.212-29.584,64.315
	c-2.251,4.894,1.448,10.634,6.814,10.634h14.366v170.227H190.421V354.922c0-4.143-3.358-7.5-7.5-7.5h-82.118
	c-4.142,0-7.5,3.357-7.5,7.5v129.178h-52.3V185.929z M108.304,484.1V362.423h67.117v121.678h-67.117V484.1z M372.454,484.1v-96.736
	h54.46V484.1H372.454z M475.15,484.1h-33.235V379.863c0-4.142-3.358-7.5-7.5-7.5h-69.46c-4.142,0-7.5,3.358-7.5,7.5V484.1h-33.235
	V313.874h150.932L475.15,484.1L475.15,484.1z M306.557,298.874l22.684-49.314h140.885l22.685,49.314H306.557z"/>
<g>
</g>
<g>
</g>
<g>
</g>
<g>
</g>
<g>
</g>
<g>
</g>
<g>
</g>
<g>
</g>
<g>
</g>
<g>
</g>
<g>
</g>
<g>
</g>
<g>
</g>
<g>
</g>
<g>
</g>
</svg>
