<svg height="512pt" viewBox="-61 0 512 512" width="512pt" xmlns="http://www.w3.org/2000/svg"><path d="m195 0c-74.398438 0-135 60.601562-135 135 0 38.699219 16.800781 75.597656 45.902344 101.398438 2.699218 2.402343 6.296875 3.601562 9.898437 3.601562h158.398438c3.601562 0 7.199219-1.199219 9.898437-3.601562 29.101563-25.800782 45.902344-62.699219 45.902344-101.398438 0-74.398438-60.601562-135-135-135zm0 0" fill="#ffe470"/><path d="m330 135c0 38.699219-16.800781 75.597656-45.902344 101.398438-2.699218 2.402343-6.296875 3.601562-9.898437 3.601562h-79.199219v-240c74.398438 0 135 60.601562 135 135zm0 0" fill="#ffd400"/><path d="m240 165c0 24.898438-20.097656 45-45 45-15.902344 0-30.902344-8.699219-39-22.5-4.199219-7.199219-1.800781-16.199219 5.398438-20.398438 7.203124-4.203124 16.5-1.800781 20.703124 5.398438 2.699219 4.5 7.5 7.5 12.898438 7.5 8.402344 0 15-6.601562 15-15 0-8.402344-6.597656-15-15-15-24.902344 0-45-20.101562-45-45 0-19.5 12.597656-36 30-42.300781v-17.097657c0-8.402343 6.597656-15 15-15s15 6.597657 15 15v17.398438c9.902344 3.601562 18.601562 10.199219 24 19.5 4.199219 7.199219 1.800781 16.199219-5.398438 20.402344-7.203124 4.199218-16.5 1.796875-20.703124-5.402344-2.699219-4.5-7.5-7.5-12.898438-7.5-8.402344 0-15 6.601562-15 15 0 8.402344 6.597656 15 15 15 24.902344 0 45 20.097656 45 45zm0 0" fill="#ff9f00"/><path d="m390 270-42.597656 13.199219 32.699218 16.800781-140.101562 112.199219v84.800781c0 8.398438-6.597656 15-15 15h-60c-8.402344 0-15-6.601562-15-15v-84.800781l-140.097656-112.199219 16.796875-13.5-26.699219-16.5v-45c0-8.402344 6.597656-15 15-15h360c8.402344 0 15 6.597656 15 15zm0 0" fill="#a8ebfa"/><path d="m240 165c0 24.898438-20.097656 45-45 45v-30c8.402344 0 15-6.601562 15-15 0-8.402344-6.597656-15-15-15v-30c24.902344 0 45 20.097656 45 45zm0 0" fill="#ff7816"/><path d="m195 90v-59.398438c8.402344 0 15 6.597657 15 15v17.398438c9.902344 3.601562 18.601562 10.199219 24 19.5 4.199219 7.199219 1.800781 16.199219-5.398438 20.402344-7.203124 4.199218-16.5 1.796875-20.703124-5.402344-2.699219-4.5-7.5-7.5-12.898438-7.5zm0 0" fill="#ff7816"/><path d="m390 270-42.597656 13.199219 32.699218 16.800781-140.101562 112.199219v84.800781c0 8.398438-6.597656 15-15 15h-30v-302h180c8.402344 0 15 6.597656 15 15zm0 0" fill="#76e2f8"/><path d="m180 285c0 8.398438-6.597656 15-15 15h-155.097656l-4.203125-3.300781c-3.597657-2.699219-5.699219-7.199219-5.699219-11.699219v-15h165c8.402344 0 15 6.597656 15 15zm0 0" fill="#76e2f8"/><path d="m390 270v15c0 4.5-2.101562 9-5.699219 11.699219l-4.199219 3.300781h-155.101562c-8.402344 0-15-6.601562-15-15 0-8.402344 6.597656-15 15-15zm0 0" fill="#25d9f8"/></svg>