<svg id="Capa_1" enable-background="new 0 0 511.649 511.649" height="512" viewBox="0 0 511.649 511.649" width="512" xmlns="http://www.w3.org/2000/svg"><g><g><path d="m267.095 7.505c-119.83 0-216.98 97.14-216.98 216.97 0 119.84 97.15 216.98 216.98 216.98 119.84 0 216.98-97.14 216.98-216.98 0-119.83-97.14-216.97-216.98-216.97zm0 385.96c-93.32 0-168.98-75.66-168.98-168.99 0-93.32 75.66-168.98 168.98-168.98 93.33 0 168.99 75.66 168.99 168.98 0 93.33-75.66 168.99-168.99 168.99z" fill="#6bd9e7"/></g><g><path d="m369.005 32.885c59.57 38.67 98.96 105.78 98.96 182.09 0 119.84-97.14 216.98-216.98 216.98-36.83 0-71.52-9.18-101.9-25.37 33.97 22.06 74.5 34.87 118.01 34.87 119.84 0 216.98-97.14 216.98-216.98 0-83-46.6-155.11-115.07-191.59z" fill="#2ed1e2"/></g><g><path d="m369.864 196.705v-31.623c0-12.633-10.241-22.874-22.874-22.874-12.234 0-22.224 9.604-22.843 21.684v-24.768c0-12.633-10.241-22.874-22.874-22.874-12.633 0-22.874 10.241-22.874 22.874v-16.318c0-12.633-10.241-22.874-22.874-22.874-12.633 0-22.874 10.241-22.874 22.874v21.854c0-12.633-10.241-22.874-22.874-22.874-12.633 0-22.874 10.241-22.874 22.874v39.822h.348c-22.567 5.598-28.667 33.929-27.3 55.057v5.303c0 29.861 13.712 58.069 37.194 76.515l9.488 7.453c4.312 3.387 6.83 8.567 6.83 14.05v161.288h112.485v-158.654c0-6.55 3.631-12.491 9.341-15.701 49.015-27.555 40.421-102.537 34.575-133.088zm-91.353-12.558c-.037-.011-.076-.018-.114-.029v-2.251c0 .77.04 1.53.114 2.28z" fill="#d78878"/></g><g><path d="m369.865 196.705v-31.62c0-12.64-10.24-22.88-22.88-22.88-3.59 0-6.98.83-10 2.3 7.63 3.7 12.88 11.53 12.88 20.58v31.62c5.85 30.55 14.44 94.56-34.58 122.12-5.71 3.21-9.34 9.15-9.34 15.7v169.62h20v-158.65c0-6.55 3.63-12.49 9.34-15.7 49.02-27.56 40.43-102.54 34.58-133.09z" fill="#ca6e59"/></g><g><path d="m232.649 184.483h-45.749v-39.822c0-12.633 10.241-22.874 22.874-22.874 12.633 0 22.874 10.241 22.874 22.874v39.822z" fill="#bb5d4c"/></g><g><path d="m278.397 184.483h-45.749v-61.676c0-12.633 10.241-22.874 22.874-22.874 12.633 0 22.874 10.241 22.874 22.874v61.676z" fill="#bb5d4c"/></g><g><path d="m301.272 204.742c-12.633 0-22.874-10.241-22.874-22.874v-42.743c0-12.633 10.241-22.874 22.874-22.874 12.633 0 22.874 10.241 22.874 22.874v42.743c0 12.633-10.241 22.874-22.874 22.874z" fill="#bb5d4c"/></g><g><path d="m346.989 230.699c-12.633 0-22.874-10.241-22.874-22.874v-42.743c0-12.633 10.241-22.874 22.874-22.874 12.633 0 22.874 10.241 22.874 22.874v42.743c.001 12.633-10.241 22.874-22.874 22.874z" fill="#bb5d4c"/></g><g><path d="m232.645 144.665v39.82h-19.47v-39.82c0-6.32-2.56-12.04-6.7-16.18-1.86-1.86-4.03-3.4-6.43-4.52 2.95-1.4 6.25-2.18 9.73-2.18 6.31 0 12.03 2.56 16.17 6.7s6.7 9.86 6.7 16.18z" fill="#a44f3e"/></g><g><path d="m278.395 122.805v61.68h-19.47v-61.68c0-6.32-2.56-12.03-6.7-16.17-1.86-1.86-4.03-3.4-6.44-4.52 2.95-1.4 6.26-2.18 9.74-2.18 6.32 0 12.03 2.56 16.17 6.7s6.7 9.85 6.7 16.17z" fill="#a44f3e"/></g><g><path d="m324.145 139.125v42.74c0 12.64-10.24 22.88-22.87 22.88-3.48 0-6.79-.78-9.74-2.18 7.77-3.65 13.14-11.54 13.14-20.7v-42.74c0-6.32-2.56-12.03-6.7-16.17-1.86-1.86-4.03-3.4-6.44-4.52 2.95-1.4 6.26-2.18 9.74-2.18 6.31 0 12.03 2.56 16.17 6.7s6.7 9.85 6.7 16.17z" fill="#a44f3e"/></g><g><path d="m369.865 165.085v42.74c0 12.63-10.24 22.87-22.88 22.87-3.48 0-6.78-.78-9.73-2.18 7.77-3.65 13.14-11.54 13.14-20.69v-42.74c0-6.32-2.56-12.04-6.7-16.18-1.86-1.86-4.03-3.4-6.44-4.52 2.95-1.4 6.25-2.18 9.73-2.18 6.32 0 12.04 2.56 16.18 6.7s6.7 9.86 6.7 16.18z" fill="#a44f3e"/></g><g><path d="m261.759 292.141c-4-49.329-44.469-64.661-44.469-64.661h44.067c15.684 0 28.391-12.749 28.321-28.449-.038-8.605-7.069-15.547-15.674-15.547h-78.362c-29.482 0-37.217 32.512-35.693 56.057v5.303c0 29.861 13.712 58.069 37.194 76.515z" fill="#d78878"/></g><g><path d="m431.807 30.266c-5.348 11.239-15.77 28.738-31.811 37.413-3.371 1.823-3.371 6.605 0 8.428 16.04 8.675 26.463 26.174 31.811 37.413 1.733 3.641 6.889 3.641 8.622 0 5.348-11.239 15.77-28.738 31.811-37.413 3.371-1.823 3.371-6.605 0-8.428-16.04-8.675-26.463-26.174-31.811-37.413-1.733-3.641-6.889-3.641-8.622 0z" fill="#fdb441"/></g><g><path d="m472.235 76.105c-16.04 8.68-26.46 26.18-31.81 37.42-1.73 3.64-6.89 3.64-8.62 0-1.66-3.49-3.81-7.57-6.46-11.81 5.89-9.43 12.375-19.62 23.445-25.61 3.38-1.82 3.38-6.6 0-8.43-11.07-5.98-17.555-16.17-23.445-25.6 2.65-4.24 4.8-8.32 6.46-11.81 1.73-3.64 6.89-3.64 8.62 0 5.35 11.24 15.77 28.74 31.81 37.41 3.38 1.83 3.38 6.61 0 8.43z" fill="#fea613"/></g><g><path d="m61.911 377.114c-5.348 11.239-15.77 28.738-31.811 37.413-3.371 1.823-3.371 6.605 0 8.428 16.04 8.675 26.463 26.174 31.811 37.413 1.733 3.641 6.889 3.641 8.622 0 5.348-11.239 15.77-28.738 31.811-37.413 3.371-1.823 3.371-6.605 0-8.428-16.04-8.675-26.463-26.174-31.811-37.413-1.733-3.641-6.89-3.641-8.622 0z" fill="#fdb441"/></g><g><path d="m102.345 422.955c-16.04 8.68-26.46 26.17-31.81 37.41-1.73 3.64-6.89 3.64-8.62 0-1.19-2.5-2.63-5.3-4.32-8.25 5.05-10.22 12.32-22.53 24.83-29.3 3.26-1.76 3.26-6.39 0-8.15-12.51-6.77-19.78-19.08-24.83-29.29 1.69-2.95 3.13-5.76 4.32-8.26 1.73-3.64 6.89-3.64 8.62 0 5.35 11.24 15.77 28.74 31.81 37.41 3.37 1.83 3.37 6.61 0 8.43z" fill="#fea613"/></g><g><path d="m460.725 110.833c-1.689-2.872-3.466-5.687-5.28-8.476 5.083-7.425 11.88-15.065 20.362-19.653 3.985-2.155 6.461-6.297 6.461-10.81 0-4.514-2.476-8.656-6.461-10.812-14.539-7.863-24.163-24.701-28.605-34.038-2.057-4.323-6.304-7.009-11.083-7.009-4.78 0-9.026 2.686-11.084 7.008-2.961 6.223-8.238 15.77-15.723 23.779-9.281-7.615-19.168-14.511-29.594-20.569-3.582-2.082-8.172-.865-10.252 2.717-2.081 3.582-.865 8.172 2.717 10.253 8.845 5.139 17.279 10.921 25.25 17.266-.337.195-.663.408-1.005.593-3.984 2.156-6.46 6.298-6.46 10.812 0 4.513 2.476 8.655 6.46 10.81 14.538 7.862 24.163 24.701 28.606 34.038 2.057 4.323 6.304 7.009 11.084 7.009 4.634 0 8.761-2.53 10.883-6.624.263.438.535.871.794 1.311 18.829 32.014 28.782 68.683 28.782 106.042 0 92.328-60.044 170.887-143.132 198.703v-35.186c64.525-26.276 110.135-89.662 110.135-163.517 0-97.313-79.17-176.482-176.482-176.482s-176.482 79.169-176.482 176.481c0 75.828 48.076 140.627 115.344 165.548v34.829c-85.777-26.223-148.341-106.13-148.341-200.377 0-115.507 93.972-209.479 209.479-209.479 25.833 0 51.049 4.644 74.948 13.804 3.869 1.483 8.205-.452 9.687-4.319 1.482-3.868-.451-8.205-4.318-9.688-25.62-9.818-52.642-14.797-80.317-14.797-59.96 0-116.332 23.35-158.73 65.749s-65.749 98.771-65.749 158.731 23.35 116.333 65.749 158.731c27.572 27.572 61.058 47.069 97.592 57.346v63.593c0 4.142 3.358 7.5 7.5 7.5h30.031c4.142 0 7.5-3.358 7.5-7.5s-3.358-7.5-7.5-7.5h-22.531v-153.789c0-7.836-3.534-15.107-9.696-19.948l-9.488-7.453c-21.815-17.137-34.327-42.875-34.327-70.617 0-15.722-.844-34.33 10.708-46.654 4.545-4.849 10.265-7.206 17.485-7.206h78.361c4.488 0 8.155 3.625 8.175 8.081.024 5.581-2.129 10.831-6.065 14.785s-9.177 6.131-14.756 6.131h-44.067c-3.621 0-6.725 2.587-7.377 6.149s1.334 7.081 4.72 8.364c.36.136 36.076 14.162 39.651 58.254.335 4.128 3.951 7.208 8.082 6.87 4.128-.335 7.204-3.953 6.869-8.082-2.25-27.749-14.958-45.655-26.913-56.556h19.035c9.598 0 18.613-3.746 25.386-10.548 3.693-3.709 6.466-8.086 8.225-12.852 2.035.432 4.143.662 6.304.662 5.597 0 10.841-1.528 15.349-4.18.128 16.639 13.699 30.137 30.369 30.137 7.46 0 14.296-2.708 19.589-7.187.573 10.221.505 21.397-.872 32.43-3.622 29.007-15.094 49.131-34.097 59.813-8.12 4.565-13.164 13.087-13.164 22.238v151.155h-40.051c-4.143 0-7.5 3.358-7.5 7.5s3.357 7.5 7.5 7.5h47.551c4.143 0 7.5-3.358 7.5-7.5v-65.127c34.508-10.623 66.128-29.556 92.384-55.812 42.398-42.398 65.748-98.77 65.748-158.731 0-40.028-10.669-79.326-30.853-113.644zm-24.607-5.446c-6.065-11.494-15.367-24.925-28.547-33.494 13.18-8.568 22.481-21.999 28.547-33.494 6.064 11.493 15.367 24.925 28.548 33.494-13.181 8.569-22.484 22.001-28.548 33.494zm-210.969 70.596s-30.335.017-30.749.029v-31.35c0-8.478 6.897-15.375 15.374-15.375 8.478 0 15.375 6.897 15.375 15.375zm45.748 0h-30.748v-53.176c0-8.478 6.897-15.375 15.374-15.375 8.478 0 15.374 6.897 15.374 15.375zm45.718 6.501c-.327 8.19-7.073 14.757-15.343 14.757-1.466 0-2.882-.211-4.224-.599-.787-7.369-5.07-13.719-11.151-17.367v-40.151c0-8.477 6.897-15.374 15.375-15.374s15.374 6.897 15.374 15.374zm45.749 25.341c0 8.477-6.896 15.374-15.374 15.374s-15.375-6.897-15.375-15.374l.031-43.359c.327-8.19 7.074-14.757 15.344-14.757 8.478 0 15.374 6.897 15.374 15.374zm-28.918 137.669c0-3.739 2.113-7.25 5.515-9.163 52.798-29.68 44.6-107.459 38.403-140.325v-30.923c0-16.748-13.626-30.374-30.374-30.374-5.597 0-10.842 1.528-15.35 4.18-.128-16.639-13.699-30.137-30.368-30.137-6.182 0-11.936 1.861-16.74 5.046-3.848-12.363-15.397-21.364-29.009-21.364-15.337 0-28.048 11.429-30.082 26.216-4.577-2.767-9.939-4.362-15.666-4.362-16.749 0-30.374 13.626-30.374 30.375v34.612c-4.56 2.005-8.665 4.9-12.187 8.657-15.568 16.608-15.273 43.563-14.765 51.846v5.067c0 32.375 14.602 62.413 40.061 82.413l9.488 7.453c2.518 1.978 3.962 4.949 3.962 8.152v31.062c-58.813-24.149-100.344-82.031-100.344-149.444 0-89.042 72.44-161.482 161.482-161.482s161.482 72.441 161.482 161.482c0 65.406-39.092 121.847-95.135 147.206v-26.193z"/><path d="m105.911 407.93c-14.538-7.862-24.163-24.701-28.606-34.04-2.058-4.322-6.305-7.007-11.084-7.007s-9.025 2.686-11.083 7.008c-4.443 9.337-14.068 26.176-28.606 34.039-3.985 2.155-6.46 6.298-6.46 10.811s2.476 8.656 6.46 10.811c14.538 7.862 24.163 24.701 28.606 34.039 2.057 4.322 6.304 7.007 11.083 7.008h.001c4.779 0 9.026-2.685 11.083-7.008 4.443-9.338 14.068-26.176 28.606-34.039 3.985-2.155 6.46-6.298 6.46-10.811s-2.475-8.656-6.46-10.811zm-39.689 44.305c-6.065-11.494-15.368-24.926-28.547-33.494 13.179-8.568 22.482-22 28.547-33.494 6.065 11.494 15.368 24.927 28.547 33.494-13.18 8.569-22.482 22-28.547 33.494z"/></g></g></svg>