<?xml version="1.0"?>
<svg xmlns="http://www.w3.org/2000/svg" id="outline" viewBox="0 0 512 512" width="512" height="512"><path d="M32,280H75.8833l30.42822,42.59961A32.06268,32.06268,0,0,0,132.35059,336h56.645l-26.353,64H112a7.99943,7.99943,0,0,0-6.65625,3.5625l-16,24A7.99983,7.99983,0,0,0,88,432v32a8.00008,8.00008,0,0,0,8,8H400a8.00008,8.00008,0,0,0,8-8V432a7.99983,7.99983,0,0,0-1.34375-4.4375l-16-24A7.99943,7.99943,0,0,0,384,400H333.35742l-26.353-64h56.645a32.06268,32.06268,0,0,0,26.03907-13.40039L420.1167,280H448a7.99979,7.99979,0,0,0,7.15527-4.42236L468.94409,248H488a8.00008,8.00008,0,0,0,8-8V48a8.00008,8.00008,0,0,0-8-8H296a8.00008,8.00008,0,0,0-8,8V240a8.00008,8.00008,0,0,0,8,8h19.05591l13.78882,27.57764A7.99979,7.99979,0,0,0,336,280h25.052l-5.33325,8h-68.627a43.83685,43.83685,0,0,0-78.1836,0H140.28125l-5.33325-8H160a7.99979,7.99979,0,0,0,7.15527-4.42236l16-32A7.99928,7.99928,0,0,0,176,232H155.69482A31.79171,31.79171,0,0,0,160,216V192a48.054,48.054,0,0,0-48-48H80a48.054,48.054,0,0,0-48,48v24a31.79171,31.79171,0,0,0,4.30518,16H16a7.99928,7.99928,0,0,0-7.15527,11.57764l16,32A7.99979,7.99979,0,0,0,32,280ZM392,434.42236V456H104V434.42236L116.28125,416h263.4375ZM304,184h24V168H304V152H480v16H376v16H480v16H304Zm0-64a16.01833,16.01833,0,0,1,16,16H304Zm160,16a16.01833,16.01833,0,0,1,16-16v16Zm16-64a16.01833,16.01833,0,0,1-16-16h16Zm0,16v16a32.03635,32.03635,0,0,0-32,32H336a32.03635,32.03635,0,0,0-32-32V88a32.03635,32.03635,0,0,0,32-32H448A32.03635,32.03635,0,0,0,480,88ZM304,56h16a16.01833,16.01833,0,0,1-16,16Zm0,160H480v16H304Zm28.94434,32H451.05566l-8,16H340.94434ZM360,304a7.99943,7.99943,0,0,0,6.65625-3.5625L380.28125,280h20.17334L376.669,313.2998A16.03267,16.03267,0,0,1,363.64941,320H300.416l-6.58814-16Zm-137.74023-6.76172a27.83682,27.83682,0,0,1,51.48046,0L316.0542,400H179.9458Zm-92.916,3.19922A7.99943,7.99943,0,0,0,136,304h66.17212L195.584,320H132.35059a16.03267,16.03267,0,0,1-13.01954-6.7002L95.54541,280h20.17334ZM80,160h32a32.05589,32.05589,0,0,1,30.9873,24H49.0127A32.05589,32.05589,0,0,1,80,160Zm36.686,40-5.92627,5.92627L100.88257,200ZM48,216V200H69.78394l38.09985,22.85986a8.00053,8.00053,0,0,0,9.77344-1.20312L139.314,200H144v16a16.01833,16.01833,0,0,1-16,16H64A16.01833,16.01833,0,0,1,48,216Zm115.05566,32-8,16H36.94434l-8-16Z"/><path d="M392,128a32,32,0,1,0-32-32A32.03635,32.03635,0,0,0,392,128Zm0-48a16,16,0,1,1-16,16A16.01833,16.01833,0,0,1,392,80Z"/><rect x="344" y="168" width="16" height="16"/><circle cx="248" cy="312" r="8"/></svg>
