<?xml version="1.0"?>
<svg xmlns="http://www.w3.org/2000/svg" id="outline" viewBox="0 0 512 512" width="512" height="512"><path d="M480,472V48a7.99977,7.99977,0,0,0-8-8H408a7.99977,7.99977,0,0,0-8,8v72H344a7.99977,7.99977,0,0,0-8,8v64H280a7.99977,7.99977,0,0,0-8,8v72H216a7.99977,7.99977,0,0,0-8,8V456.00012L192,444V221.13232A31.87223,31.87223,0,0,0,199.80353,203.51l19.51-19.51H256a24.02687,24.02687,0,0,0,24-24V136a7.99526,7.99526,0,0,0-5.2-7.48627L296,107.314l10.34326,10.34278A7.99981,7.99981,0,0,0,320,112V32a7.99977,7.99977,0,0,0-8-8H232a7.99981,7.99981,0,0,0-5.65674,13.65674L236.686,48l-55.99982,56H158.98743A31.948,31.948,0,0,0,160,96V75.31348l.686-.686A24.9704,24.9704,0,0,0,143.0293,32H128A32.036,32.036,0,0,0,96,64V96a31.948,31.948,0,0,0,1.01257,8H72a40.04521,40.04521,0,0,0-40,40v48a40.05238,40.05238,0,0,0,24.02509,36.66144L26.34326,258.34326A7.99877,7.99877,0,0,0,24,264v96a7.99984,7.99984,0,0,0,13.65674,5.65674L64,339.31348V488a7.99977,7.99977,0,0,0,8,8H216a7.99977,7.99977,0,0,0,8-8H496V472ZM264,160a8.00917,8.00917,0,0,1-8,8H208a16.01833,16.01833,0,0,1-16-16v-8h16a7.99977,7.99977,0,0,0,8-8v-4.68652l10.34326,10.34326A7.99877,7.99877,0,0,0,232,144h32ZM253.65674,42.34326,251.314,40H304V92.686l-2.34326-2.34278a8,8,0,0,0-11.31348,0L252.68652,128h-17.373l-12-12A13.65669,13.65669,0,0,0,200,125.65674V128H184a7.99977,7.99977,0,0,0-8,8v16a31.92506,31.92506,0,0,0,10.86768,24H176v-2.34326A13.65669,13.65669,0,0,0,152.68652,164l-12,12h-9.373L253.65674,53.65674A7.99915,7.99915,0,0,0,253.65674,42.34326ZM128,112a16.01833,16.01833,0,0,1-16-16V91.31348L123.31348,80H144V96A16.01833,16.01833,0,0,1,128,112Zm12.68646,31.99994L136,148.6864v-9.37292Zm11.31348-11.31348-8.62921-8.62921A32.14165,32.14165,0,0,0,149.13232,120h15.554ZM128,48h15.0293a8.97072,8.97072,0,0,1,6.34326,15.314l-.686.686H120a7.99877,7.99877,0,0,0-5.65674,2.34326L112,68.68652V64A16.01833,16.01833,0,0,1,128,48ZM72,120h34.86768a32.14165,32.14165,0,0,0,5.76159,4.05725l-14.286,14.286,11.31348,11.31348L120,139.31348v25.373L108.68652,176H88V144H72v16H48V144A24.02687,24.02687,0,0,1,72,120ZM48,192V176H72v8a7.99977,7.99977,0,0,0,8,8h64a7.99877,7.99877,0,0,0,5.65674-2.34326L160,179.31348V184a7.99977,7.99977,0,0,0,8,8h16v8a16.01833,16.01833,0,0,1-16,16H72A24.02687,24.02687,0,0,1,48,192Zm-8,75.31348L75.31348,232h73.373L40,340.68652Zm131.51-35.51a31.80329,31.80329,0,0,0,4.49-.8161V442.5838l-25.04932,10.01972L135.96387,295.2417A8.00024,8.00024,0,0,0,128.03955,288h-.04a8,8,0,0,0-7.95556,7.1626L104.54907,442.3642,80,452.18378V323.31348ZM135.14062,455.35547l-14.70947-11.03223,7.1709-68.12207ZM136,480H80V469.4162l30.79688-12.31873L136,476Zm16,0V469.4162l30.79688-12.31873L208,476v4Zm72-192h48V472H224Zm64-80h48V472H288Zm64-72h48V472H352Zm64,336V56h48V472Z"/></svg>
