<svg height="512" viewBox="0 0 60 52" width="512" xmlns="http://www.w3.org/2000/svg"><g id="Page-1" fill="none" fill-rule="evenodd"><g id="004---Transgender" fill-rule="nonzero"><path id="Shape" d="m41 22c.0045397 2.9573377-1.0049075 5.8268502-2.86 8.13-1.2226878-.579957-2.2966885-1.4316327-3.14-2.49 2.634197-3.2665215 2.6594458-7.9205607.0608456-11.2154708-2.5986002-3.2949102-7.1303799-4.354953-10.9208456-2.5545292-.8835147-1.1071781-1.9445856-2.0601145-3.14-2.82 4.00119-2.55679942 9.0780853-2.72868894 13.2430465-.4483727 4.1649613 2.2803163 6.7553279 6.6500317 6.7569535 11.3983727z" fill="#9d27b0"/><path id="Shape" d="m38.14 13.87c-2.4677319-3.0755985-6.1967786-4.86657058-10.14-4.87-.501392.00244925-1.0022248.03383477-1.5.094 4.4037198.50347834 8.2456738 3.220266 10.188104 7.204385 1.9424301 3.9841189 1.7165069 8.6841726-.599104 12.463615.6156782.550511 1.3061972 1.0110815 2.051 1.368 3.8134848-4.7492128 3.8134848-11.5107872 0-16.26z" fill="#6a1b9a"/><path id="Shape" d="m35 32.95c-5.3616808 3.4153657-12.4069233 2.4522307-16.6551953-2.2768843-4.2482721-4.729115-4.4533472-11.8369286-.4848047-16.8031157 1.2226878.579957 2.2966885 1.4316327 3.14 2.49-2.634197 3.2665215-2.6594458 7.9205607-.0608456 11.2154708 2.5986002 3.2949102 7.1303799 4.354953 10.9208456 2.5545292.8835147 1.1071781 1.9445856 2.0601145 3.14 2.82z" fill="#9d27b0"/><path id="Shape" d="m35 16.36-4.45 5.64-2.55 3.24-3.86 4.89c-1.2226878-.579957-2.2966885-1.4316327-3.14-2.49l4.45-5.64 2.55-3.24 3.86-4.89c1.2226878.579957 2.2966885 1.4316327 3.14 2.49z" fill="#673ab7"/><path id="Shape" d="m57.33 10.97c-.1088746.0198992-.2193219.0299399-.33.03-.9762392-.001263-1.8089212-.7071407-1.97-1.67l-.15-.88-3.49 4.57c4.5488021 4.753169 4.8272607 12.1561503.648382 17.2376056-4.1788788 5.0814554-11.4963001 6.2377497-17.038382 2.6923944-1.1954144-.7598855-2.2564853-1.7128219-3.14-2.82l-3.86-4.89 2.55-3.24 4.45 5.64c1.7005285 2.12677 4.2769621 3.3634581 7 3.36 3.6955635.0001861 7.0156462-2.2587643 8.3721851-5.6963495s.4737934-7.3550545-2.2260016-9.878603-6.6678578-3.1402198-10.0061835-1.5550475c-.8835147-1.1071781-1.9445856-2.0601145-3.14-2.82 3.9880976-2.55408314 9.0504723-2.73419791 13.21-.47l3.73-4.88-1.61.27c-.721409.15866492-1.4715374-.09321051-1.9510011-.65510016-.4794638-.56188965-.6101928-1.34230222-.3400117-2.02976689.270181-.68746466.8972791-1.170043 1.6310128-1.25513295l6-1c1.0876584-.18077121 2.1164559.55280611 2.3 1.64l1 6c.1807712 1.0876584-.5528061 2.1164559-1.64 2.3z" fill="#02a9f4"/><path id="Shape" d="m58.97 8.67-1-6c-.1835441-1.08719389-1.2123416-1.82077121-2.3-1.64l-1.636.27c.4980926.29700747.8403863.79801426.936 1.37l1 6c.095627.59116053-.0786759 1.19406515-.475 1.643.3790018.4354794.9276929.685945 1.505.687.1106781-.0000601.2211254-.0101008.33-.03 1.0871939-.1835441 1.8207712-1.2123416 1.64-2.3z" fill="#0377bc"/><path id="Shape" d="m53.1 10.779c-.568436-.283416-.9663948-.82233417-1.07-1.449l-.15-.88-3.49 4.57c3.4122714 3.5616073 4.5124224 8.7488021 2.8396481 13.3888957s-5.8297097 7.9320854-10.7296481 8.4971043c5.4423383.6382294 10.6997557-2.2078537 13.1408135-7.1137297 2.4410578-4.9058761 1.5405453-10.8160118-2.2508135-14.7722703z" fill="#0377bc"/><path id="Shape" d="m28 18.76-2.55 3.24-4.45-5.64c-1.7005285-2.12677-4.2769621-3.3634581-7-3.36-3.6955635-.0001861-7.01564618 2.2587643-8.37218511 5.6963495-1.35653894 3.4375852-.47379337 7.3550545 2.22600161 9.878603 2.699795 2.5235485 6.6678578 3.1402198 10.0061835 1.5550475.8835147 1.1071781 1.9445856 2.0601145 3.14 2.82-1.5128633.9792592-3.21765 1.6236685-5 1.89v7.16h3c1.1045695 0 2 .8954305 2 2s-.8954305 2-2 2h-3v3c0 1.1045695-.8954305 2-2 2s-2-.8954305-2-2v-3h-3c-1.1045695 0-2-.8954305-2-2s.8954305-2 2-2h3v-7.15c-5.22864969-.8143725-9.44189186-4.7167782-10.65381568-9.867819-1.21192383-5.1510407.81935366-10.5226412 5.13639023-13.5828986 4.31703655-3.06025741 10.05821245-3.19838739 14.51742545-.3492824 1.1954144.7598855 2.2564853 1.7128219 3.14 2.82z" fill="#ef314c"/><path id="Shape" d="m11 35.68v5.32h-2c-1.65685425 0-3 1.3431458-3 3s1.34314575 3 3 3h2v2c0 1.6568542 1.3431458 2.9999999 3 2.9999999s3-1.3431457 3-2.9999999v-2h2c1.6568542 0 3-1.3431458 3-3s-1.3431458-3-3-3h-2v-5.325c1.4079128-.3061664 2.7581314-.8344395 4-1.565 4.3286376 2.5185811 9.6763624 2.5185811 14.005 0 5.8868964 3.4012717 13.3668835 2.0774258 17.7288005-3.1377328s4.3425932-12.8113683-.0458005-18.0042672l1.788-2.342c.5513945.8590753 1.5031984 1.3772126 2.524 1.374.1652822.0002874.3302634-.0141025.493-.043 1.6333312-.2733524 2.7362271-1.8184809 2.464-3.452l-1-6c-.2733524-1.63333123-1.8184809-2.73622711-3.452-2.464l-6 1c-1.6324154.27338263-2.7350059 1.81718836-2.464 3.45.2231753 1.33439459 1.3118939 2.35430026 2.658 2.49l-1.781 2.33c-4.1407906-1.93411541-8.9661347-1.71858486-12.918.577-4.3272035-2.51726951-9.6727965-2.51726951-14 0-4.3282825-2.51111474-9.6684948-2.51792164-14.00316479-.01784913-4.33466997 2.50007253-7.00296578 7.12588183-6.99683521 12.12984913.03493974 6.5647177 4.5957971 12.2367658 11 13.68zm10.535-3.58c-2.7485496-1.7535914-4.6634362-4.5518937-5.3026174-7.7489322-.6391813-3.1970384.0525884-6.5164873 1.9156174-9.1920678.5721711.350705 1.0976764.7723861 1.564 1.255-1.6188168 2.4158268-2.1078693 5.415908-1.3400947 8.2207804.7677745 2.8048724 2.7165819 5.1376409 5.3400947 6.3922196.036.017.073.028.109.045 2.4438833 1.1370446 5.245981 1.2273416 7.758.25.4844346.5424292 1.0107192 1.0459772 1.574 1.506-3.7375658 1.7849226-8.1324867 1.5095308-11.618-.728zm-5.248-2.448c-.7411954.2272944-1.5117443.3445445-2.287.348-4.418278 0-8-3.581722-8-8s3.581722-8 8-8c.7750028.0019069 1.5455358.11747 2.287.343-3.0492094 4.6493148-3.0492094 10.6646852 0 15.314zm9.948-7.037 5.887-7.467c.5750929.3488093 1.1033542.7695365 1.572 1.252l-9.818 12.449c-.5740748-.3482238-1.1016246-.7679115-1.57-1.249zm1.765-5.467-2.226-2.82c1.4536144-.4175108 2.9953856-.4175108 4.449 0zm6.942 8.806-3.117-3.954 3.119-3.955c1.4079011 2.4480082 1.4079011 5.4599918 0 7.908zm-6.945.9 2.225 2.819c-1.4536144.4175108-2.9953856.4175108-4.449 0zm-6.943-.9c-1.4079011-2.4480082-1.4079011-5.4599918 0-7.908l3.122 3.954zm26.674-14.5c.4316833.236456.9712422.1236237 1.272-.266l3.73-4.88c.2497045-.32618099.2745325-.77188915.0626-1.12378543-.2119325-.35189627-.6175092-.53838959-1.0226-.47021457l-1.608.27c-.2627836.04217826-.5315945-.02107135-.748-.176-.2139846-.15129832-.358133-.382296-.4-.641-.0911112-.5431917.2741636-1.05779546.817-1.151l6-1c.2628227-.04329514.5320575.02005424.748.176.2137936.15192451.3578489.38313312.4.642l1 6c.0440635.26343133-.0190872.53354268-.1753774.75013227-.1562901.21658959-.3927301.3616562-.6566226.40286773-.2601558.0439711-.5270618-.01859655-.7405734-.17360404-.2135115-.1550075-.3556647-.38941317-.3944266-.65039596l-.15-.88c-.06668-.39258-.3599224-.70818576-.7465527-.80348656-.3866304-.0953008-.7929564.04786781-1.0344473.36448656l-3.49 4.57c-.3000207.3917489-.2694468.9437785.072 1.3 4.1807127 4.3899951 4.4280122 11.2095214.5762551 15.8908016-3.8517571 4.6812801-10.5912271 5.7520927-15.7042551 2.4951984-1.1008122-.6984349-2.0775256-1.5754491-2.89-2.595l-3.373-4.272 1.279-1.622 3.668 4.649c.9386044 1.1744966 2.1315795 2.1206021 3.489 2.767.034.016.07.026.1.042 1.3120304.6143496 2.74326.9322109 4.192.931 5.5228475 0 10-4.4771525 10-10s-4.4771525-10-10-10c-1.223417.000675-2.4360373.228889-3.576.673-.4844346-.5424292-1.0107192-1.0459772-1.574-1.506 1.6080322-.7685519 3.3677432-1.1673058 5.15-1.167 2.0027007-.0074897 3.9744392.4942197 5.73 1.458zm-8.017 18.2c3.0492094-4.6493148 3.0492094-10.6646852 0-15.314.7422414-.2247781 1.5134698-.3393337 2.289-.34 4.418278 0 8 3.581722 8 8s-3.581722 8-8 8c-.7750028-.0019069-1.5455358-.11747-2.287-.343zm-5.246-17.754c2.7485496 1.7535914 4.6634362 4.5518937 5.3026174 7.7489322.6391813 3.1970384-.0525884 6.5164873-1.9156174 9.1920678-.5721711-.350705-1.0976764-.7723861-1.564-1.255 2.4478921-3.6136346 2.2644327-8.3985583-.452968-11.8141497-2.7174006-3.4155914-7.33865-4.6698664-11.410032-3.0968503-.4844962-.5433323-1.0111324-1.0475655-1.575-1.508 3.7367498-1.78380173 8.1302285-1.50842916 11.615.728zm-20.465-1.9c2.2929434-.00203702 4.5377575.6576918 6.465 1.9 1.1008122.6984349 2.0775256 1.5754491 2.89 2.595l3.374 4.273-1.279 1.617-3.669-4.65c-3.2090325-4.006208-8.9285295-4.9354798-13.24082684-2.1512952-4.31229737 2.7841846-5.81943343 8.3792478-3.48907042 12.9527586 2.33036302 4.5735107 7.74276736 6.6428271 12.52989726 4.7905366.483925.5403809 1.0095409 1.0419228 1.572 1.5-1.0409594.5033348-2.1517254.8471835-3.295 1.02-.4935678.0708016-.859562.4943823-.858.993v7.16c0 .5522847.4477153 1 1 1h3c.5522847 0 1 .4477153 1 1s-.4477153 1-1 1h-3c-.5522847 0-1 .4477153-1 1v3c0 .5522847-.4477153 1-1 1s-1-.4477153-1-1v-3c0-.5522847-.4477153-1-1-1h-3c-.55228475 0-1-.4477153-1-1s.44771525-1 1-1h3c.5522847 0 1-.4477153 1-1v-7.15c-.0001878-.4934488-.3602848-.9129958-.848-.988-6.20877852-.9496545-10.63481324-6.5263829-10.14983262-12.7886164.48498061-6.2622335 5.71687218-11.09100082 11.99783262-11.0733836z" fill="#000"/></g></g></svg>