<?xml version="1.0" encoding="iso-8859-1"?>
<!-- Generator: Adobe Illustrator 19.0.0, SVG Export Plug-In . SVG Version: 6.00 Build 0)  -->
<svg version="1.1" id="Capa_1" xmlns="http://www.w3.org/2000/svg" xmlns:xlink="http://www.w3.org/1999/xlink" x="0px" y="0px"
	 viewBox="0 0 512 512" style="enable-background:new 0 0 512 512;" xml:space="preserve">
<rect x="42.739" y="13.297" style="fill:#4FC3F7;" width="146.451" height="146.296"/>
<rect x="86.741" y="57.216" style="fill:#D9D9D9;" width="58.436" height="102.369"/>
<rect x="42.739" y="13.297" style="opacity:0.1;enable-background:new    ;" width="61.811" height="146.296"/>
<polygon style="fill:#FFB74D;" points="358.811,51.713 264.489,68.89 264.489,272.559 453.133,272.559 453.133,68.89 "/>
<polygon style="opacity:0.1;enable-background:new    ;" points="379.415,55.465 358.811,51.713 264.489,68.89 264.489,272.559 
	305.696,272.559 305.696,68.89 "/>
<polygon style="fill:#26A69A;" points="189.188,159.59 26.786,176.091 26.786,498.703 318.539,498.703 344.801,477.565 
	358.791,452.841 358.791,176.091 "/>
<rect x="64.149" y="223.446" style="fill:#00897B;" width="67.747" height="68.414"/>
<polygon style="opacity:0.1;enable-background:new    ;" points="215.5,162.15 189.188,159.59 26.786,176.091 26.786,498.703 
	78.295,498.703 78.295,176.091 "/>
<g>
	<rect x="96.116" y="357.906" style="fill:#00897B;" width="84.588" height="140.795"/>
	<polygon style="fill:#00897B;" points="385.578,143.09 358.791,176.091 26.786,176.091 0,143.09 	"/>
</g>
<polygon style="opacity:0.1;enable-background:new    ;" points="0,143.09 26.786,176.091 78.295,176.091 51.509,143.09 "/>
<rect x="189.193" y="223.446" style="fill:#00897B;" width="67.747" height="68.414"/>
<rect x="249.922" y="34.535" style="fill:#FF9800;" width="217.77" height="34.357"/>
<rect x="249.922" y="34.535" style="opacity:0.1;enable-background:new    ;" width="41.207" height="34.357"/>
<polygon style="fill:#E6643C;" points="481.523,241.639 326.49,241.639 296.013,307.892 318.539,307.892 404.006,337.397 
	489.474,307.892 512,307.892 "/>
<polygon style="opacity:0.1;enable-background:new    ;" points="359.746,307.892 337.22,307.892 367.697,241.639 326.49,241.639 
	296.013,307.892 318.539,307.892 404.006,337.397 424.61,330.284 "/>
<polygon style="fill:#FF6F43;" points="318.539,307.892 318.539,498.703 368.23,498.703 404.006,472.664 439.783,498.703 
	489.474,498.703 489.474,307.892 "/>
<g style="opacity:0.1;">
	<rect x="318.542" y="307.89" width="30.905" height="190.81"/>
</g>
<rect x="368.228" y="383.598" style="fill:#E6643C;" width="71.556" height="115.102"/>
<g>
</g>
<g>
</g>
<g>
</g>
<g>
</g>
<g>
</g>
<g>
</g>
<g>
</g>
<g>
</g>
<g>
</g>
<g>
</g>
<g>
</g>
<g>
</g>
<g>
</g>
<g>
</g>
<g>
</g>
</svg>
